PathFileType  4	(X/Y/Z) C:\Users\antoi\Documents\MyRepositories\mobilecap\ResultsAnalysis
DataRate	CameraRate	NumFrames	NumMarkers	Units	OrigDataRate	OrigDataStartFrame	OrigNumFrames
100.0	100.0	6	51	mm	100.0	837	1338
Frame#	Time	r_knee			r_shank_antsup			r_ankle			r_calc			r_5meta			r_toe			L_knee			L_shank_antsup			L_ankle			L_calc			L_5meta			L_toe			r_sh2			r_sh3			r_sh4			L_sh2			L_sh3			r_thigh1			r_thigh2			r_thigh3			r_thigh4			r_thigh5			L_thigh1			L_thigh2			L_thigh3			L_thigh4			r.ASIS			r.PSIS			L.ASIS			L.PSIS			C7			R_Shoulder			L_Shoulder			R_Sternum			L_Sternum			R_humerus			R_elbow_med			R_elbow_lat			R_forearm			R_wrist_radius			R_wrist_ulna			L_humerus			L_elbow_med			L_elbow_lat			L_forearm			L_wrist_radius			L_wrist_ulna			R_HJC			L_HJC			R_HJC_reg			L_HJC_reg			
		X1	Y1	Z1	X2	Y2	Z2	X3	Y3	Z3	X4	Y4	Z4	X5	Y5	Z5	X6	Y6	Z6	X7	Y7	Z7	X8	Y8	Z8	X9	Y9	Z9	X10	Y10	Z10	X11	Y11	Z11	X12	Y12	Z12	X13	Y13	Z13	X14	Y14	Z14	X15	Y15	Z15	X16	Y16	Z16	X17	Y17	Z17	X18	Y18	Z18	X19	Y19	Z19	X20	Y20	Z20	X21	Y21	Z21	X22	Y22	Z22	X23	Y23	Z23	X24	Y24	Z24	X25	Y25	Z25	X26	Y26	Z26	X27	Y27	Z27	X28	Y28	Z28	X29	Y29	Z29	X30	Y30	Z30	X31	Y31	Z31	X32	Y32	Z32	X33	Y33	Z33	X34	Y34	Z34	X35	Y35	Z35	X36	Y36	Z36	X37	Y37	Z37	X38	Y38	Z38	X39	Y39	Z39	X40	Y40	Z40	X41	Y41	Z41	X42	Y42	Z42	X43	Y43	Z43	X44	Y44	Z44	X45	Y45	Z45	X46	Y46	Z46	X47	Y47	Z47	X48	Y48	Z48	X49	Y49	Z49	X50	Y50	Z50	X51	Y51	Z51	

837	8.36000000	-155.83708	492.04366	-388.61973	-136.81254	392.92230	-390.06538	-274.42202	92.26704	-391.59338	-334.89687	57.75744	-443.08465	-161.31838	43.03619	-342.14676	-123.99424	70.35500	-394.87927	-149.14677	511.94050	-762.16345	-120.76642	420.31438	-769.34402	-254.70142	107.07743	-792.72139	-322.65586	67.00192	-737.32434	-161.56674	39.95645	-847.08925	-105.50222	63.15060	-798.92446	-166.39294	283.14082	-389.03574	-200.22964	408.22357	-352.03827	-235.38201	299.34154	-347.87578	-201.30860	456.48556	-790.50958	-235.62761	341.15358	-809.92324	-109.89956	778.14962	-372.79387	-97.61186	668.57059	-385.48333	-145.36993	633.70006	-353.95815	-219.63248	758.21302	-350.36864	-198.81458	645.70114	-366.56533	-102.92024	767.80096	-742.97352	-71.96907	631.21592	-747.50102	-208.20104	746.74982	-764.74035	-179.28762	616.09207	-760.00610	-100.77363	972.36154	-417.76905	-309.21286	978.08286	-501.84219	-108.70607	982.92039	-676.62031	-307.14939	980.57299	-592.05546	-284.28680	1450.53837	-518.76806	-197.37820	1415.87292	-354.47702	-193.99021	1430.36397	-677.68244	-155.04647	1382.22467	-500.03521	-153.76928	1387.70618	-542.31269	-131.77991	1296.26415	-305.97485	-162.45157	1079.07796	-329.78780	-146.14749	1096.46576	-267.08557	-70.70676	1055.67155	-250.88610	34.55909	924.99098	-282.03067	3.76491	908.34735	-249.01046	-133.81303	1307.13554	-739.85912	-134.80055	1097.56121	-707.55580	-128.15775	1117.97147	-783.84780	-63.79446	1083.06820	-805.72290	43.84756	938.56563	-807.66013	2.34607	928.67201	-837.27331	-170.33158	875.11133	-449.70075	-171.94768	883.64216	-639.06376	-167.00330	887.45739	-458.21644	-163.09096	892.17595	-629.17208	
838	8.37000000	-156.07829	491.59281	-388.88913	-136.58987	392.55060	-390.14964	-274.38704	92.29113	-391.34274	-334.94890	57.66436	-443.04814	-161.34288	43.07103	-342.17972	-124.03595	70.44403	-394.93027	-149.46374	511.71389	-762.69685	-120.72637	420.14228	-769.84210	-254.71092	107.01397	-792.75237	-322.71369	66.96552	-737.36724	-161.57233	39.94236	-847.12388	-105.50255	63.12930	-798.91159	-166.19943	282.58282	-389.18542	-199.80555	407.83943	-352.14471	-235.52845	299.04934	-347.64991	-201.17147	456.26208	-791.09995	-235.45975	340.91860	-810.43860	-112.64952	777.98563	-373.11200	-99.40786	668.39391	-386.00562	-147.02409	633.32138	-354.13120	-222.25501	757.38751	-350.80836	-200.56938	644.88076	-366.78346	-105.11729	767.56962	-742.78146	-73.51771	631.24024	-747.94127	-210.44082	746.10084	-765.17254	-180.65017	615.60616	-760.85039	-104.56887	971.30485	-417.69325	-312.29143	978.68326	-502.16346	-112.03430	981.92520	-676.99679	-310.27502	981.09226	-592.31459	-283.31350	1451.20116	-518.94798	-196.50031	1415.97669	-354.60902	-193.21948	1430.00338	-676.63227	-154.48821	1381.92724	-499.95931	-153.26211	1387.40906	-542.25473	-129.93739	1297.39760	-305.84770	-156.83193	1079.78868	-328.94140	-140.73042	1098.31639	-266.87742	-63.38874	1058.86019	-251.34646	46.56866	932.87836	-284.20384	16.64406	915.07602	-250.64304	-131.05303	1308.23792	-739.42315	-128.82079	1098.54039	-707.57271	-121.52999	1119.23114	-783.79420	-55.39419	1086.62564	-804.52303	58.15378	946.70027	-803.85546	18.02589	934.25926	-833.68643	-174.56695	874.61039	-449.87240	-175.93575	883.12865	-639.23833	-171.13796	886.86841	-458.11385	-167.30841	891.44422	-629.36459	
839	8.38000000	-156.34551	491.11818	-389.10722	-136.37056	392.18440	-390.27864	-274.42371	92.27218	-391.15116	-334.97714	57.58680	-443.07190	-161.35521	43.08662	-342.21030	-124.08904	70.53655	-394.98791	-149.70548	511.58747	-763.36424	-120.58916	420.04472	-770.32255	-254.68489	106.97270	-792.77597	-322.71512	66.97604	-737.38986	-161.56758	39.92802	-847.14001	-105.49656	63.10716	-798.93186	-165.96396	281.98288	-389.38765	-199.35941	407.36250	-352.14758	-235.88529	298.51648	-347.45655	-200.98184	456.16043	-791.79938	-235.23150	340.72478	-811.14829	-115.59556	777.90018	-373.30465	-101.31148	668.22776	-386.34970	-148.84283	632.97327	-354.30864	-225.09128	756.43534	-351.49849	-202.40655	644.02857	-367.06781	-107.34648	767.34661	-742.70659	-75.01413	631.26036	-748.16847	-212.63730	745.38241	-765.57369	-181.97178	614.95044	-761.46056	-108.10159	970.58959	-417.94079	-315.40353	979.33153	-502.28459	-115.20494	981.04059	-677.08115	-313.41521	981.72492	-592.71945	-282.12772	1451.81058	-519.00476	-195.45655	1416.01130	-354.71611	-192.02735	1429.82516	-675.92491	-153.71805	1381.60531	-499.86252	-152.61845	1387.01222	-542.25957	-127.97787	1298.47315	-305.83734	-151.28800	1080.49953	-328.04131	-135.29633	1099.64277	-266.45010	-56.13955	1062.03436	-251.89036	58.51345	940.99502	-287.05128	29.48404	921.78651	-253.35616	-128.25835	1309.27116	-738.91875	-122.96566	1099.58223	-707.72371	-114.83229	1120.50805	-783.58359	-47.01630	1090.29509	-803.12706	72.34110	955.21663	-799.50270	33.21905	941.13106	-830.42058	-178.60889	874.35651	-449.98596	-179.79033	882.74170	-639.35917	-174.98368	886.55301	-458.29292	-171.22193	891.08208	-629.42713	
840	8.39000000	-156.53709	490.82972	-389.07582	-136.01894	391.74462	-390.54606	-274.49650	92.18319	-391.11860	-335.00139	57.53385	-443.14517	-161.36683	43.11984	-342.24103	-124.16767	70.66241	-395.02824	-149.84056	511.49774	-764.01727	-120.44058	419.93979	-770.69039	-254.65146	106.97668	-792.86156	-322.66778	67.05176	-737.44478	-161.54781	39.94410	-847.19237	-105.46975	63.06997	-798.97154	-165.72405	281.49503	-389.68662	-198.91161	406.83475	-352.14546	-235.49774	298.15508	-347.63195	-200.81549	456.14697	-792.64706	-235.05346	340.59143	-811.82900	-118.70961	777.92071	-373.24465	-103.15563	668.19898	-386.36562	-150.65812	632.68013	-354.34276	-228.04882	755.38428	-352.18352	-204.32533	643.19815	-367.18426	-109.69792	767.12497	-742.74105	-76.46482	631.18930	-748.09098	-214.75553	744.56388	-766.03274	-183.30873	614.23969	-762.01985	-111.59737	969.83646	-418.25336	-318.60290	980.00827	-502.24678	-118.16310	980.10450	-676.92413	-316.55269	982.37564	-593.12025	-280.79954	1452.42833	-518.92062	-194.25217	1415.97716	-354.70355	-190.53043	1429.71238	-675.68339	-153.08505	1381.05641	-499.96919	-151.87524	1386.51878	-542.17149	-125.93458	1299.43918	-305.74848	-145.64552	1081.18112	-327.46880	-129.97301	1099.92820	-265.63340	-48.94538	1065.34593	-252.49352	70.29115	949.58003	-290.08787	42.21129	928.66691	-256.70510	-125.40415	1310.21915	-738.36620	-116.87061	1100.59046	-707.86738	-108.12142	1121.82049	-783.35484	-38.65251	1094.04158	-801.56069	86.22177	964.30218	-794.90164	47.99052	949.22417	-827.40972	-182.68123	874.08673	-450.00296	-183.60937	882.33595	-639.38355	-178.86576	886.33550	-458.53125	-175.01196	890.78549	-629.34191	
841	8.40000000	-156.61363	490.76623	-388.55710	-135.46761	391.33716	-390.78806	-274.51865	92.12150	-391.12378	-335.04459	57.48463	-443.18213	-161.37094	43.23899	-342.25273	-124.25463	70.81168	-395.05011	-149.88917	511.39073	-764.74705	-120.33592	419.90741	-771.11289	-254.61794	107.02436	-793.05900	-322.63289	67.15825	-737.53999	-161.51660	39.98254	-847.27401	-105.41822	63.01586	-798.99007	-165.46651	281.16971	-389.99050	-198.36959	406.33694	-352.24313	-234.35186	297.89602	-347.96248	-200.66521	456.12937	-793.50846	-234.91825	340.51186	-812.42462	-121.88259	777.75093	-373.20118	-104.91170	668.17886	-386.24633	-152.47952	632.26592	-354.29175	-231.06427	754.24593	-352.73793	-206.35122	642.31295	-367.22413	-112.13886	766.86989	-742.78367	-77.83261	630.96470	-747.88742	-216.83936	743.76026	-766.66266	-184.64693	613.58829	-762.77939	-115.33842	968.84353	-418.43555	-321.86328	980.65297	-502.25578	-121.27030	979.00313	-676.95061	-319.71592	983.00677	-593.36849	-279.34425	1453.02771	-518.82575	-192.84353	1415.93350	-354.66804	-188.97966	1429.48128	-675.48454	-152.32981	1380.41771	-499.94260	-151.07557	1385.99849	-542.00529	-123.74454	1300.34141	-305.63695	-139.48114	1082.13188	-327.55120	-124.65262	1100.03969	-264.81734	-41.78883	1068.84084	-253.15266	81.71996	958.65955	-293.00881	54.85976	936.27975	-259.39708	-122.40984	1311.11614	-737.81012	-110.68187	1101.49612	-707.72846	-101.45867	1123.15132	-783.15729	-30.31458	1097.82616	-799.79194	99.72474	973.96949	-790.15369	62.74034	957.49765	-823.83682	-186.96731	873.65326	-450.03479	-187.64211	881.81450	-639.42035	-183.03458	885.86130	-458.73741	-179.01129	890.27077	-629.43025	
842	8.41000000	-156.59120	490.64926	-387.84604	-134.85137	390.93654	-391.06788	-274.47957	92.09321	-391.07728	-335.08941	57.43788	-443.16354	-161.37760	43.37085	-342.28303	-124.31183	70.92791	-395.07540	-149.96352	511.27523	-765.65220	-120.24283	420.02673	-771.71577	-254.57361	107.05868	-793.27847	-322.63663	67.22383	-737.60182	-161.48211	40.00725	-847.35368	-105.38325	62.97511	-798.97816	-165.14544	280.90597	-390.22264	-197.68415	405.96926	-352.40625	-233.58916	297.42488	-347.90389	-200.50135	456.01421	-794.21517	-234.78942	340.39281	-812.96369	-125.09095	777.25121	-373.28683	-106.88260	668.00494	-386.16489	-154.43734	631.60230	-354.21379	-234.20604	752.99421	-353.12932	-208.44349	641.24232	-367.31138	-114.55835	766.59493	-742.85821	-79.19518	630.70688	-747.77753	-218.94053	742.98727	-767.39258	-185.96495	613.07932	-763.81773	-119.00247	967.71326	-418.61135	-325.24909	981.36444	-502.35376	-124.61162	977.75221	-677.06367	-322.92084	983.74356	-593.49168	-277.74316	1453.52706	-518.79898	-191.20764	1415.87184	-354.78404	-187.42355	1429.05977	-674.94744	-151.39476	1379.73467	-499.77580	-150.17630	1385.42752	-541.83097	-121.39244	1301.19861	-305.66640	-132.95878	1083.31113	-327.99957	-119.08615	1100.76887	-264.50915	-34.72029	1072.45389	-253.81163	92.67895	967.99369	-296.14911	67.45489	944.66233	-261.41776	-119.29208	1311.95819	-737.11085	-104.52297	1102.39916	-707.21617	-94.84879	1124.45963	-782.83847	-22.19183	1101.70427	-797.87344	112.85575	984.05867	-785.24693	77.45320	965.64498	-819.44990	-191.39153	873.16641	-450.09655	-191.92244	881.23515	-639.48649	-187.43087	885.22105	-459.06117	-183.07180	889.67488	-629.69527	
